<svg height="512pt" viewBox="-3 0 512 512" width="512pt" xmlns="http://www.w3.org/2000/svg"><path d="m253.300781 230.832031 8.035157 120.5h64.300781l8.035156-120.5zm0 0"/><path d="m243.265625 80.332031 8.035156 120.5h84.371094l8.03125-120.5zm0 0"/><path d="m365.734375 200.832031h132.328125l8.496094-63.699219c1.992187-14.941406-2.136719-29.140624-11.628906-39.984374-9.496094-10.84375-23.023438-16.8125-38.097657-16.8125h-83.0625zm0 0"/><path d="m464.863281 401.667969h-302.589843c-14.652344 0-28.667969-12.273438-30.605469-26.800781l-3.136719-23.535157h102.738281l-8.035156-120.5h-141.035156l19.730469 148.003907c1.894531 14.195312 9.1875 27.484374 20.539062 37.421874 8.414062 7.367188 18.367188 12.273438 28.785156 14.324219-4.242187 7.808594-6.65625 16.753907-6.65625 26.25 0 30.421875 24.75 55.167969 55.167969 55.167969s55.167969-24.746094 55.167969-55.167969c0-9.0625-2.210938-17.613281-6.101563-25.164062h78.601563c-3.890625 7.550781-6.101563 16.101562-6.101563 25.164062 0 30.421875 24.746094 55.167969 55.167969 55.167969 30.417969 0 55.164062-24.746094 55.164062-55.167969 0-9.0625-2.210937-17.613281-6.097656-25.164062h39.296875c8.285157 0 15-6.71875 15-15 0-8.285157-6.714843-15-15-15zm0 0"/><path d="m58.996094 56.796875 19.203125 144.035156h143.035156l-8.035156-120.5h-120.800781l-3.664063-27.5c-3.953125-29.625-24.578125-52.832031-46.957031-52.832031h-26.777344c-8.285156 0-15 6.714844-15 15s6.714844 15 15 15h26.777344c4.8125 0 15 10.175781 17.21875 26.796875zm0 0"/><path d="m363.734375 230.832031-8.03125 120.5h68.996094c14.320312 0 28.457031-5.472656 39.808593-15.40625 11.351563-9.9375 18.644532-23.230469 20.535157-37.425781l9.023437-67.667969zm0 0"/></svg>